#N canvas 0 22 1280 752 10;
#X msg 264 87 close;
#X msg 199 86 open 0;
#X msg 348 90 devicename /dev/tty.usbmodem411;
#X obj 200 144 comport 1 115220;
#X obj 200 219 unpack 0 0 0 0;
#X floatatom 190 261 5 0 0 0 - - -;
#X floatatom 234 255 5 0 0 0 - - -;
#X obj 200 187 zl group 4;
#X floatatom 279 251 5 0 0 0 - - -;
#X floatatom 332 260 5 0 0 0 - - -;
#X obj 147 219 print;
#X msg 347 117 pollintervall 1000;
#X obj 342 494 dac~;
#X obj 341 466 *~;
#X obj 355 438 line~;
#X msg 355 382 0.1 100;
#X msg 374 407 0 100;
#X text 426 377 on;
#X text 423 406 off;
#X text 392 431 envelope;
#X text 392 444 generator;
#X obj 169 338 osc~;
#X obj 218 342 osc~;
#X obj 286 340 osc~;
#X obj 330 337 osc~;
#X obj 171 312 * 5;
#X obj 221 312 * 5;
#X obj 284 312 * 5;
#X obj 331 309 * 5;
#X connect 0 0 3 0;
#X connect 1 0 3 0;
#X connect 2 0 3 0;
#X connect 3 0 7 0;
#X connect 4 0 5 0;
#X connect 4 1 6 0;
#X connect 4 2 8 0;
#X connect 4 3 9 0;
#X connect 5 0 25 0;
#X connect 6 0 26 0;
#X connect 7 0 4 0;
#X connect 7 0 10 0;
#X connect 8 0 27 0;
#X connect 9 0 28 0;
#X connect 11 0 3 0;
#X connect 13 0 12 0;
#X connect 14 0 13 1;
#X connect 15 0 14 0;
#X connect 16 0 14 0;
#X connect 21 0 13 0;
#X connect 22 0 13 0;
#X connect 23 0 13 0;
#X connect 24 0 13 0;
#X connect 25 0 21 0;
#X connect 26 0 22 0;
#X connect 27 0 23 0;
#X connect 28 0 24 0;
